<svg xmlns="http://www.w3.org/2000/svg" xmlns:xlink="http://www.w3.org/1999/xlink" preserveAspectRatio="xMidYMid" width="8.91" height="18.312" viewBox="0 0 8.91 18.312">
  <defs>
    <style>
      .cls-1 {
        fill: #929292;
        opacity: 0.85;
        fill-rule: evenodd;
      }
    </style>
  </defs>
  <path d="M8.758,9.722 L5.545,9.722 L5.545,18.321 L2.271,18.321 L2.271,9.722 L-0.003,9.722 L-0.003,6.625 L2.271,6.625 C2.271,6.625 2.271,5.356 2.271,3.981 C2.271,1.903 3.614,-0.005 6.708,-0.005 C7.962,-0.005 8.889,0.115 8.889,0.115 L8.815,3.006 C8.815,3.006 7.870,2.997 6.839,2.997 C5.723,2.997 5.545,3.511 5.545,4.365 C5.545,4.471 5.545,4.508 5.545,4.510 C5.545,4.749 5.545,5.330 5.545,6.625 L8.904,6.625 L8.758,9.722 Z" class="cls-1"/>
</svg>
