<svg xmlns="http://www.w3.org/2000/svg" xmlns:xlink="http://www.w3.org/1999/xlink" preserveAspectRatio="xMidYMid" width="23.09" height="19.063" viewBox="0 0 23.09 19.063">
  <defs>
    <style>
      .cls-1 {
        fill: #929292;
        opacity: 0.85;
        fill-rule: evenodd;
      }
    </style>
  </defs>
  <path d="M19.642,5.754 L19.642,9.210 L17.338,9.210 L17.338,5.754 L13.882,5.754 L13.882,3.450 L17.338,3.450 L17.338,-0.006 L19.642,-0.006 L19.642,3.450 L23.098,3.450 L23.098,5.754 L19.642,5.754 ZM9.336,1.257 C9.336,1.257 11.025,2.181 11.025,4.548 C11.025,6.915 8.957,7.572 8.460,9.144 C8.460,10.934 12.229,11.114 12.149,14.456 C11.870,19.071 7.366,18.945 6.192,19.025 C0.324,18.726 -0.005,15.510 -0.005,15.510 C-0.005,11.153 6.908,11.193 6.908,11.193 C5.794,10.417 6.531,8.806 6.531,8.806 C1.279,8.487 1.657,4.728 1.657,4.728 C1.935,0.609 5.894,-0.009 5.894,-0.009 L12.260,0.011 L11.245,1.178 L9.336,1.257 ZM6.562,12.026 C4.423,12.026 2.328,13.418 2.328,14.987 C2.328,16.556 4.423,17.829 6.562,17.829 C8.701,17.829 10.436,16.556 10.436,14.987 C10.436,13.418 8.701,12.026 6.562,12.026 ZM8.761,4.032 C8.187,2.227 6.641,1.044 5.381,1.389 C4.120,1.733 3.564,3.476 4.138,5.280 C4.712,7.085 6.199,8.268 7.459,7.923 C8.719,7.579 9.335,5.836 8.761,4.032 Z" class="cls-1"/>
</svg>
