<svg xmlns="http://www.w3.org/2000/svg" xmlns:xlink="http://www.w3.org/1999/xlink" preserveAspectRatio="xMidYMid" width="45" height="48" viewBox="0 0 45 48">
  <defs>
    <style>
      .cls-1 {
        fill: #f63c3c;
        fill-rule: evenodd;
      }
    </style>
  </defs>
  <path d="M40.500,39.000 L39.000,39.000 L39.000,36.000 C40.657,36.000 42.000,34.657 42.000,33.000 L42.000,6.000 C42.000,4.343 40.657,3.000 39.000,3.000 L15.000,3.000 C13.343,3.000 12.000,4.343 12.000,6.000 L9.000,6.000 L9.000,4.500 C9.000,2.015 11.014,0.000 13.500,0.000 L40.500,0.000 C42.986,0.000 45.000,2.015 45.000,4.500 L45.000,34.500 C45.000,36.984 42.986,39.000 40.500,39.000 ZM36.000,13.500 L36.000,43.500 C36.000,45.985 33.985,48.000 31.500,48.000 L4.500,48.000 C2.015,48.000 -0.000,45.985 -0.000,43.500 L-0.000,13.500 C-0.000,11.015 2.015,9.000 4.500,9.000 L31.500,9.000 C33.985,9.000 36.000,11.015 36.000,13.500 ZM6.000,12.000 C4.343,12.000 3.000,13.343 3.000,15.000 L3.000,42.000 C3.000,43.657 4.343,45.000 6.000,45.000 L30.000,45.000 C31.657,45.000 33.000,43.657 33.000,42.000 L33.000,15.000 C33.000,13.343 31.657,12.000 30.000,12.000 L6.000,12.000 Z" class="cls-1"/>
</svg>
