<svg xmlns="http://www.w3.org/2000/svg" xmlns:xlink="http://www.w3.org/1999/xlink" preserveAspectRatio="xMidYMid" width="33" height="48" viewBox="0 0 33 48">
  <defs>
    <style>
      .cls-1 {
        fill: #30282a;
        fill-rule: evenodd;
      }
    </style>
  </defs>
  <path d="M28.500,48.000 L4.500,48.000 C2.015,48.000 -0.000,45.985 -0.000,43.500 L-0.000,4.500 C-0.000,2.015 2.015,-0.000 4.500,-0.000 L28.500,-0.000 C30.985,-0.000 33.000,2.015 33.000,4.500 L33.000,43.500 C33.000,45.985 30.985,48.000 28.500,48.000 ZM30.000,6.000 C30.000,4.343 28.657,3.000 27.000,3.000 L6.000,3.000 C4.343,3.000 3.000,4.343 3.000,6.000 L3.000,42.000 C3.000,43.657 4.343,45.000 6.000,45.000 L27.000,45.000 C28.657,45.000 30.000,43.657 30.000,42.000 L30.000,6.000 ZM19.500,9.000 L13.500,9.000 C12.671,9.000 12.000,8.329 12.000,7.500 C12.000,6.671 12.671,6.000 13.500,6.000 L19.500,6.000 C20.328,6.000 21.000,6.671 21.000,7.500 C21.000,8.329 20.328,9.000 19.500,9.000 ZM16.500,36.000 C18.157,36.000 19.500,37.343 19.500,39.000 C19.500,40.657 18.157,42.000 16.500,42.000 C14.843,42.000 13.500,40.657 13.500,39.000 C13.500,37.343 14.843,36.000 16.500,36.000 Z" class="cls-1"/>
</svg>
