<svg xmlns="http://www.w3.org/2000/svg" xmlns:xlink="http://www.w3.org/1999/xlink" preserveAspectRatio="xMidYMid" width="48" height="42.03" viewBox="0 0 48 42.03">
  <defs>
    <style>
      .cls-1 {
        fill: #f63c3c;
        fill-rule: evenodd;
      }
    </style>
  </defs>
  <path d="M43.788,24.279 C23.963,42.050 23.935,41.990 23.935,41.990 C23.935,41.990 23.940,42.024 4.213,24.279 C-1.399,18.728 -1.369,9.761 4.213,4.181 C11.374,-2.980 18.360,0.182 24.000,5.250 C29.641,0.182 36.683,-2.923 43.788,4.181 C49.371,9.761 49.400,18.728 43.788,24.279 ZM41.666,6.244 C39.457,4.066 37.275,3.006 34.993,3.006 C32.322,3.006 29.297,4.487 26.004,7.407 L23.999,9.185 L21.994,7.407 C18.683,4.471 15.663,2.983 13.018,2.983 C10.744,2.983 8.557,4.050 6.333,6.244 C4.185,8.363 3.006,11.160 3.014,14.120 C3.022,17.048 4.196,19.802 6.218,21.779 C16.795,31.166 21.689,36.204 23.951,38.204 C26.205,36.234 31.093,31.233 41.678,21.876 C43.804,19.802 44.977,17.047 44.986,14.120 C44.993,11.160 43.814,8.362 41.666,6.244 Z" class="cls-1"/>
</svg>
