<svg xmlns="http://www.w3.org/2000/svg" xmlns:xlink="http://www.w3.org/1999/xlink" preserveAspectRatio="xMidYMid" width="48" height="47.6" viewBox="0 0 48 47.6">
  <defs>
    <style>
      .cls-1 {
        fill: #30282a;
        fill-rule: evenodd;
      }
    </style>
  </defs>
  <path d="M28.500,13.327 L16.500,13.327 L16.500,14.817 L28.500,14.817 L28.500,13.327 ZM33.000,16.308 L16.500,16.308 L16.500,17.798 L33.000,17.798 L33.000,16.308 ZM46.457,17.001 C46.470,16.985 46.484,16.967 46.497,16.952 L40.500,12.003 L40.500,5.875 L33.072,5.875 L27.149,0.987 C25.399,-0.355 22.887,-0.413 21.034,1.050 L15.135,5.875 L9.000,5.875 L9.000,10.892 L1.579,16.961 C0.616,17.571 -0.000,18.708 -0.000,20.779 L-0.000,43.135 C-0.000,45.605 2.015,47.606 4.500,47.606 L43.500,47.606 C45.985,47.606 48.000,45.605 48.000,43.135 L48.000,20.779 C48.000,18.745 47.395,17.620 46.457,17.001 ZM40.500,15.949 L43.365,18.340 L42.265,19.288 L42.000,19.288 C42.081,19.288 42.158,19.306 42.237,19.312 L40.500,20.808 L40.500,15.949 ZM22.958,3.267 C23.295,3.002 23.694,2.863 24.113,2.863 C24.540,2.863 24.967,3.009 25.252,3.226 L28.426,5.875 L19.796,5.875 L22.958,3.267 ZM12.000,8.856 L37.500,8.856 L37.500,23.391 L25.252,33.938 C24.967,34.157 24.540,34.303 24.113,34.303 C23.694,34.303 23.295,34.164 22.958,33.897 L12.000,23.976 L12.000,8.856 ZM9.000,14.778 L9.000,21.259 L5.253,17.868 L9.000,14.778 ZM3.143,42.508 C3.059,42.233 3.000,41.947 3.000,41.645 L3.000,22.269 C3.000,21.561 3.259,20.920 3.674,20.408 L15.772,31.361 L3.143,42.508 ZM42.000,44.626 L6.000,44.626 C5.784,44.626 5.575,44.601 5.372,44.558 L18.016,33.397 L17.992,33.371 L21.034,36.124 C22.887,37.594 25.399,37.536 27.149,36.187 L30.184,33.573 L42.627,44.558 C42.425,44.601 42.216,44.626 42.000,44.626 ZM45.000,41.645 C45.000,41.947 44.941,42.233 44.857,42.508 L32.487,31.590 L44.730,21.046 C44.900,21.420 45.000,21.832 45.000,22.269 L45.000,41.645 ZM31.500,19.288 L16.500,19.288 L16.500,20.779 L31.500,20.779 L31.500,19.288 Z" class="cls-1"/>
</svg>
