<svg xmlns="http://www.w3.org/2000/svg" xmlns:xlink="http://www.w3.org/1999/xlink" preserveAspectRatio="xMidYMid" width="48" height="48" viewBox="0 0 48 48">
  <defs>
    <style>
      .cls-1 {
        fill: #f63c3c;
        fill-rule: evenodd;
      }
    </style>
  </defs>
  <path d="M15.000,21.000 C18.314,21.000 21.000,18.314 21.000,15.000 C21.000,11.686 18.314,9.000 15.000,9.000 C11.686,9.000 9.000,11.686 9.000,15.000 C9.000,18.314 11.686,21.000 15.000,21.000 ZM15.000,12.023 C16.644,12.023 17.977,13.356 17.977,15.000 C17.977,16.643 16.644,17.977 15.000,17.977 C13.356,17.977 12.023,16.643 12.023,15.000 C12.023,13.356 13.356,12.023 15.000,12.023 ZM43.500,-0.000 L4.500,-0.000 C2.015,-0.000 -0.000,2.015 -0.000,4.500 L-0.000,43.500 C-0.000,45.985 2.015,48.000 4.500,48.000 L43.500,48.000 C45.985,48.000 48.000,45.985 48.000,43.500 L48.000,4.500 C48.000,2.015 45.985,-0.000 43.500,-0.000 ZM45.000,42.000 C45.000,43.657 43.657,45.000 42.000,45.000 L6.000,45.000 C4.343,45.000 3.000,43.657 3.000,42.000 L3.000,6.000 C3.000,4.343 4.343,3.000 6.000,3.000 L42.000,3.000 C43.657,3.000 45.000,4.343 45.000,6.000 L45.000,42.000 ZM20.570,35.572 C21.130,35.013 21.130,34.106 20.570,33.546 L16.387,29.363 C16.317,29.189 16.212,29.025 16.071,28.884 C15.634,28.448 14.991,28.360 14.460,28.604 C14.266,28.672 14.082,28.774 13.927,28.929 C13.871,28.986 13.846,29.057 13.801,29.120 L6.384,36.537 C5.823,37.098 5.823,38.009 6.384,38.571 C6.946,39.133 7.857,39.133 8.418,38.571 L14.980,32.009 L18.545,35.572 C19.104,36.132 20.011,36.132 20.570,35.572 ZM35.887,26.360 C35.817,26.187 35.711,26.025 35.571,25.884 C35.134,25.447 34.490,25.361 33.959,25.604 C33.766,25.673 33.583,25.775 33.428,25.930 C33.373,25.985 33.348,26.056 33.304,26.117 L19.884,39.537 C19.322,40.098 19.322,41.009 19.884,41.571 C20.446,42.132 21.357,42.132 21.918,41.571 L34.479,29.010 L39.541,34.072 C40.102,34.632 41.010,34.632 41.570,34.072 C42.130,33.512 42.130,32.604 41.570,32.043 L35.887,26.360 Z" class="cls-1"/>
</svg>
