<svg xmlns="http://www.w3.org/2000/svg" xmlns:xlink="http://www.w3.org/1999/xlink" preserveAspectRatio="xMidYMid" width="48" height="48" viewBox="0 0 48 48">
  <defs>
    <style>
      .cls-1 {
        fill: #f63c3c;
        fill-rule: evenodd;
      }
    </style>
  </defs>
  <path d="M24.000,-0.000 C10.745,-0.000 -0.000,10.745 -0.000,24.000 C-0.000,37.255 10.745,48.000 24.000,48.000 C37.255,48.000 48.000,37.255 48.000,24.000 C48.000,10.745 37.255,-0.000 24.000,-0.000 ZM41.339,12.168 L34.810,15.937 C34.030,14.894 33.106,13.970 32.062,13.190 L35.834,6.656 C37.996,8.134 39.861,10.008 41.339,12.168 ZM34.500,24.000 C34.500,29.799 29.799,34.500 24.000,34.500 C18.201,34.500 13.500,29.799 13.500,24.000 C13.500,18.201 18.201,13.500 24.000,13.500 C29.799,13.500 34.500,18.201 34.500,24.000 ZM24.000,3.000 C27.318,3.000 30.444,3.791 33.234,5.161 L29.477,11.668 C27.802,10.923 25.952,10.500 24.000,10.500 C22.442,10.500 20.952,10.777 19.559,11.263 L15.779,4.716 C18.306,3.631 21.073,3.000 24.000,3.000 ZM13.158,6.064 L16.895,12.536 C15.728,13.261 14.679,14.155 13.785,15.190 L7.226,11.403 C8.837,9.261 10.862,7.462 13.158,6.064 ZM3.000,24.000 C3.000,20.324 3.950,16.873 5.608,13.868 L12.104,17.618 C11.082,19.519 10.500,21.691 10.500,24.000 C10.500,25.896 10.895,27.699 11.601,29.337 L5.078,33.104 C3.749,30.349 3.000,27.263 3.000,24.000 ZM6.574,35.704 L13.097,31.937 C13.926,33.074 14.926,34.074 16.062,34.903 L12.292,41.434 C10.033,39.914 8.094,37.961 6.574,35.704 ZM24.000,45.000 C20.737,45.000 17.660,44.234 14.906,42.906 L18.662,36.399 C20.300,37.105 22.103,37.500 24.000,37.500 C26.309,37.500 28.481,36.918 30.382,35.896 L34.125,42.380 C31.124,44.044 27.677,45.000 24.000,45.000 ZM36.600,40.779 L32.810,34.214 C33.845,33.321 34.738,32.272 35.463,31.105 L41.954,34.852 C40.560,37.153 38.738,39.165 36.600,40.779 ZM36.737,28.441 C37.223,27.048 37.500,25.558 37.500,24.000 C37.500,22.048 37.077,20.198 36.332,18.523 L42.851,14.760 C44.222,17.548 45.000,20.682 45.000,24.000 C45.000,26.925 44.399,29.710 43.318,32.240 L36.737,28.441 Z" class="cls-1"/>
</svg>
