<svg xmlns="http://www.w3.org/2000/svg" xmlns:xlink="http://www.w3.org/1999/xlink" preserveAspectRatio="xMidYMid" width="48" height="48" viewBox="0 0 48 48">
  <defs>
    <style>
      .cls-1 {
        fill: #f63c3c;
        fill-rule: evenodd;
      }
    </style>
  </defs>
  <path d="M43.500,39.000 L31.500,39.000 L31.500,45.000 L33.000,45.000 C33.828,45.000 34.500,45.672 34.500,46.500 C34.500,47.328 33.828,48.000 33.000,48.000 L15.000,48.000 C14.172,48.000 13.500,47.328 13.500,46.500 C13.500,45.672 14.172,45.000 15.000,45.000 L16.500,45.000 L16.500,39.000 L4.500,39.000 C2.015,39.000 -0.000,36.985 -0.000,34.500 L-0.000,4.500 C-0.000,2.015 2.015,-0.000 4.500,-0.000 L43.500,-0.000 C45.985,-0.000 48.000,2.015 48.000,4.500 L48.000,34.500 C48.000,36.985 45.985,39.000 43.500,39.000 ZM19.500,45.000 L28.500,45.000 L28.500,39.000 L19.500,39.000 L19.500,45.000 ZM45.000,6.000 C45.000,4.343 43.657,3.000 42.000,3.000 L6.000,3.000 C4.343,3.000 3.000,4.343 3.000,6.000 L3.000,28.500 L45.000,28.500 L45.000,6.000 ZM45.000,31.500 L3.000,31.500 L3.000,33.000 C3.000,34.657 4.343,36.000 6.000,36.000 L42.000,36.000 C43.657,36.000 45.000,34.657 45.000,33.000 L45.000,31.500 Z" class="cls-1"/>
</svg>
