<svg xmlns="http://www.w3.org/2000/svg" xmlns:xlink="http://www.w3.org/1999/xlink" preserveAspectRatio="xMidYMid" width="48" height="48" viewBox="0 0 48 48">
  <defs>
    <style>
      .cls-1 {
        fill: #f63c3c;
        fill-rule: evenodd;
      }
    </style>
  </defs>
  <path d="M43.500,48.000 L4.500,48.000 C2.015,48.000 -0.000,45.985 -0.000,43.500 L-0.000,4.500 C-0.000,2.015 2.015,0.000 4.500,0.000 L43.500,0.000 C45.985,0.000 48.000,2.015 48.000,4.500 L48.000,43.500 C48.000,45.985 45.985,48.000 43.500,48.000 ZM45.000,6.000 C45.000,4.343 43.657,3.000 42.000,3.000 L6.000,3.000 C4.343,3.000 3.000,4.343 3.000,6.000 L3.000,12.000 L45.000,12.000 L45.000,6.000 ZM45.000,15.000 L3.000,15.000 L3.000,42.000 C3.000,43.657 4.343,45.000 6.000,45.000 L42.000,45.000 C43.657,45.000 45.000,43.657 45.000,42.000 L45.000,15.000 ZM7.500,6.000 C8.328,6.000 9.000,6.672 9.000,7.500 C9.000,8.328 8.328,9.000 7.500,9.000 C6.672,9.000 6.000,8.328 6.000,7.500 C6.000,6.672 6.672,6.000 7.500,6.000 ZM13.500,6.000 C14.328,6.000 15.000,6.672 15.000,7.500 C15.000,8.328 14.328,9.000 13.500,9.000 C12.672,9.000 12.000,8.328 12.000,7.500 C12.000,6.672 12.672,6.000 13.500,6.000 ZM19.500,6.000 C20.328,6.000 21.000,6.672 21.000,7.500 C21.000,8.328 20.328,9.000 19.500,9.000 C18.672,9.000 18.000,8.328 18.000,7.500 C18.000,6.672 18.672,6.000 19.500,6.000 Z" class="cls-1"/>
</svg>
