<svg xmlns="http://www.w3.org/2000/svg" xmlns:xlink="http://www.w3.org/1999/xlink" preserveAspectRatio="xMidYMid" width="48" height="48" viewBox="0 0 48 48">
  <defs>
    <style>
      .cls-1 {
        fill: #30282a;
        fill-rule: evenodd;
      }
    </style>
  </defs>
  <path d="M43.500,48.000 L4.500,48.000 C2.015,48.000 -0.000,45.985 -0.000,43.500 L-0.000,28.515 L6.000,3.000 C6.280,1.904 7.343,0.000 9.000,0.000 L37.500,0.000 C39.157,0.000 40.279,1.863 40.500,3.000 L48.000,28.515 L48.000,43.500 C48.000,45.985 45.985,48.000 43.500,48.000 ZM37.500,4.500 C37.500,3.672 36.828,3.000 36.000,3.000 L10.500,3.000 C9.672,3.000 9.000,3.672 9.000,4.500 L3.382,27.000 L13.500,27.000 L15.000,27.000 C16.500,27.000 16.500,28.500 16.500,28.500 L16.500,33.000 C16.500,33.828 17.172,34.500 18.000,34.500 L30.000,34.500 C30.828,34.500 31.500,33.828 31.500,33.000 L31.500,28.500 C31.500,28.500 31.419,27.000 33.000,27.000 L34.500,27.000 L44.526,27.000 L37.500,4.500 ZM45.000,30.000 L34.500,30.000 L34.500,34.500 C34.500,36.157 33.157,37.500 31.500,37.500 L16.500,37.500 C14.843,37.500 13.500,36.157 13.500,34.500 L13.500,30.000 L3.000,30.000 L3.000,42.000 C3.000,43.657 4.343,45.000 6.000,45.000 L42.000,45.000 C43.657,45.000 45.000,43.657 45.000,42.000 L45.000,30.000 ZM10.500,21.000 C10.500,20.172 11.172,19.500 12.000,19.500 L36.000,19.500 C36.828,19.500 37.500,20.172 37.500,21.000 C37.500,21.828 36.828,22.500 36.000,22.500 L12.000,22.500 C11.172,22.500 10.500,21.828 10.500,21.000 ZM34.500,16.500 L13.500,16.500 C12.672,16.500 12.000,15.829 12.000,15.000 C12.000,14.171 12.672,13.500 13.500,13.500 L34.500,13.500 C35.328,13.500 36.000,14.171 36.000,15.000 C36.000,15.829 35.328,16.500 34.500,16.500 ZM33.000,10.500 L15.000,10.500 C14.172,10.500 13.500,9.829 13.500,9.000 C13.500,8.171 14.172,7.500 15.000,7.500 L33.000,7.500 C33.828,7.500 34.500,8.171 34.500,9.000 C34.500,9.829 33.828,10.500 33.000,10.500 Z" class="cls-1"/>
</svg>
