<svg xmlns="http://www.w3.org/2000/svg" xmlns:xlink="http://www.w3.org/1999/xlink" preserveAspectRatio="xMidYMid" width="260.5" height="173.44" viewBox="0 0 130.25 86.72">
  <defs>
    <style>
      .cls-1 {
        fill: #fff;
        fill-rule: evenodd;
      }
    </style>
  </defs>
  <g>
    <path d="M127.713,76.125 C126.835,77.637 125.906,79.156 124.927,80.683 L124.927,86.407 L121.557,86.407 L121.557,80.726 C120.578,79.199 119.646,77.673 118.760,76.146 C117.875,74.621 117.021,73.051 116.200,71.438 L120.110,71.438 C120.570,72.472 121.066,73.499 121.599,74.518 C122.130,75.538 122.699,76.557 123.303,77.577 C123.908,76.557 124.485,75.538 125.033,74.518 C125.581,73.499 126.085,72.472 126.547,71.438 L130.262,71.438 C129.441,73.051 128.591,74.613 127.713,76.125 ZM110.242,86.407 L106.873,86.407 L106.873,74.310 L102.359,74.310 L102.359,71.438 L114.757,71.438 L114.757,74.310 L110.242,74.310 L110.242,86.407 ZM96.239,71.438 L99.608,71.438 L99.608,86.407 L96.239,86.407 L96.239,71.438 ZM87.505,86.709 C86.842,86.709 86.245,86.669 85.712,86.590 C85.179,86.511 84.708,86.413 84.297,86.298 C83.887,86.184 83.534,86.061 83.239,85.931 C82.944,85.802 82.695,85.680 82.494,85.565 L83.444,82.885 C83.890,83.130 84.441,83.350 85.097,83.544 C85.752,83.739 86.554,83.836 87.505,83.836 C87.980,83.836 88.372,83.797 88.682,83.717 C88.992,83.638 89.240,83.530 89.427,83.393 C89.614,83.256 89.744,83.095 89.816,82.907 C89.888,82.720 89.924,82.512 89.924,82.281 C89.924,81.791 89.694,81.385 89.233,81.060 C88.772,80.737 87.980,80.387 86.857,80.013 C86.367,79.840 85.878,79.642 85.388,79.419 C84.898,79.196 84.459,78.915 84.071,78.576 C83.682,78.238 83.365,77.828 83.120,77.345 C82.875,76.863 82.753,76.276 82.753,75.585 C82.753,74.894 82.883,74.271 83.142,73.717 C83.401,73.162 83.768,72.691 84.243,72.302 C84.719,71.913 85.294,71.614 85.971,71.405 C86.648,71.197 87.411,71.092 88.261,71.092 C89.269,71.092 90.140,71.200 90.874,71.416 C91.609,71.632 92.214,71.870 92.689,72.129 L91.717,74.786 C91.299,74.569 90.835,74.379 90.324,74.214 C89.812,74.048 89.197,73.965 88.477,73.965 C87.670,73.965 87.091,74.077 86.738,74.300 C86.385,74.523 86.209,74.865 86.209,75.326 C86.209,75.600 86.274,75.830 86.403,76.017 C86.533,76.204 86.717,76.373 86.954,76.525 C87.192,76.676 87.465,76.813 87.775,76.935 C88.084,77.057 88.426,77.183 88.801,77.313 C89.579,77.601 90.255,77.885 90.831,78.166 C91.407,78.447 91.886,78.775 92.268,79.149 C92.649,79.524 92.934,79.963 93.121,80.467 C93.308,80.971 93.402,81.583 93.402,82.302 C93.402,83.699 92.912,84.783 91.933,85.554 C90.953,86.323 89.478,86.709 87.505,86.709 ZM76.452,84.916 C76.170,84.412 75.881,83.923 75.585,83.447 C75.289,82.972 74.996,82.522 74.707,82.097 C74.418,81.673 74.128,81.287 73.839,80.942 L72.176,80.942 L72.176,86.407 L68.807,86.407 L68.807,71.654 C69.541,71.510 70.300,71.409 71.085,71.351 C71.870,71.294 72.572,71.265 73.191,71.265 C75.438,71.265 77.158,71.665 78.354,72.464 C79.549,73.263 80.146,74.505 80.146,76.189 C80.146,77.241 79.905,78.094 79.423,78.750 C78.940,79.405 78.246,79.919 77.339,80.294 C77.641,80.668 77.958,81.097 78.289,81.579 C78.620,82.061 78.948,82.565 79.272,83.091 C79.596,83.617 79.909,84.164 80.211,84.733 C80.514,85.301 80.795,85.859 81.054,86.407 L77.287,86.407 C77.012,85.917 76.734,85.420 76.452,84.916 ZM75.837,74.602 C75.283,74.293 74.466,74.138 73.386,74.138 C73.141,74.138 72.921,74.145 72.727,74.159 C72.533,74.173 72.349,74.188 72.176,74.202 L72.176,78.263 L73.127,78.263 C74.393,78.263 75.301,78.105 75.848,77.788 C76.395,77.472 76.669,76.932 76.669,76.168 C76.669,75.434 76.391,74.912 75.837,74.602 ZM55.091,71.438 L65.199,71.438 L65.199,74.267 L58.460,74.267 L58.460,77.205 L64.443,77.205 L64.443,79.970 L58.460,79.970 L58.460,83.577 L65.696,83.577 L65.696,86.407 L55.091,86.407 L55.091,71.438 ZM50.658,78.480 C50.139,79.805 49.593,81.145 49.017,82.498 C48.441,83.852 47.856,85.155 47.263,86.407 L44.049,86.407 C43.453,85.149 42.865,83.845 42.286,82.492 C41.706,81.140 41.156,79.802 40.634,78.478 C40.113,77.155 39.633,75.888 39.196,74.678 C38.758,73.468 38.380,72.388 38.063,71.438 L41.778,71.438 C42.058,72.305 42.369,73.237 42.712,74.236 C43.055,75.236 43.405,76.232 43.760,77.224 C44.116,78.216 44.457,79.168 44.783,80.076 C45.109,80.986 45.421,81.771 45.720,82.432 C46.001,81.775 46.308,80.992 46.642,80.083 C46.975,79.174 47.320,78.224 47.676,77.231 C48.032,76.239 48.381,75.243 48.723,74.243 C49.066,73.245 49.379,72.309 49.660,71.438 L53.247,71.438 C52.912,72.392 52.526,73.474 52.090,74.682 C51.653,75.890 51.176,77.155 50.658,78.480 ZM32.159,71.438 L35.528,71.438 L35.528,86.407 L32.159,86.407 L32.159,71.438 ZM22.654,81.331 C21.531,79.660 20.336,78.083 19.069,76.600 L19.069,86.407 L15.743,86.407 L15.743,71.438 L18.486,71.438 C18.961,71.913 19.486,72.496 20.063,73.188 C20.638,73.879 21.225,74.616 21.823,75.401 C22.420,76.186 23.014,77.000 23.605,77.842 C24.195,78.684 24.750,79.494 25.268,80.272 L25.268,71.438 L28.616,71.438 L28.616,86.407 L25.786,86.407 C24.822,84.693 23.778,83.001 22.654,81.331 ZM10.767,85.056 C10.263,85.582 9.622,85.989 8.845,86.277 C8.067,86.565 7.146,86.709 6.080,86.709 C5.029,86.709 4.122,86.561 3.358,86.266 C2.595,85.971 1.965,85.561 1.469,85.035 C0.972,84.510 0.604,83.883 0.367,83.156 C0.129,82.429 0.011,81.626 0.011,80.747 L0.011,71.438 L3.380,71.438 L3.380,80.467 C3.380,81.071 3.448,81.586 3.585,82.011 C3.722,82.436 3.909,82.782 4.147,83.048 C4.385,83.314 4.672,83.505 5.011,83.620 C5.349,83.735 5.720,83.793 6.123,83.793 C6.944,83.793 7.610,83.541 8.121,83.037 C8.632,82.533 8.888,81.676 8.888,80.467 L8.888,71.438 L12.258,71.438 L12.258,80.747 C12.258,81.626 12.135,82.432 11.890,83.167 C11.646,83.901 11.271,84.531 10.767,85.056 Z" class="cls-1"/>
    <path d="M38.158,54.006 L38.158,0.007 L92.158,0.007 L92.158,54.006 L38.158,54.006 ZM92.153,7.812 L85.241,7.812 C82.649,7.812 81.569,8.946 81.569,11.484 L81.569,32.219 C81.569,37.294 78.383,40.210 73.578,40.210 C68.772,40.210 65.586,37.294 65.586,32.273 L65.586,11.484 C65.586,8.946 64.506,7.812 61.914,7.812 L55.002,7.812 L55.002,13.806 L57.324,13.806 C58.080,13.806 58.512,14.237 58.512,14.993 L58.512,32.489 C58.512,40.966 64.506,46.798 73.632,46.798 C82.649,46.798 88.643,40.966 88.643,32.489 L88.643,14.993 C88.643,14.237 89.075,13.806 89.831,13.806 L92.153,13.806 L92.153,7.812 Z" class="cls-1"/>
  </g>
</svg>
