<svg xmlns="http://www.w3.org/2000/svg" xmlns:xlink="http://www.w3.org/1999/xlink" preserveAspectRatio="xMidYMid" width="94" height="172.94" viewBox="0 0 47 86.47">
  <defs>
    <style>
      .cls-1 {
        fill: #fff;
        fill-rule: evenodd;
      }
    </style>
  </defs>
  <path d="M41.942,34.788 L40.553,26.734 L33.221,26.734 L31.943,34.788 L26.944,34.788 L33.110,0.016 L40.386,0.016 L46.996,34.788 L41.942,34.788 ZM36.720,4.348 L33.832,22.679 L39.886,22.679 L36.720,4.348 ZM11.113,76.505 L5.169,76.505 C1.725,76.505 0.004,74.857 0.004,71.561 L0.004,46.564 C0.004,43.306 1.725,41.676 5.169,41.676 L11.113,41.676 C14.557,41.676 16.279,43.306 16.279,46.564 L16.279,51.842 L11.224,51.842 L11.224,47.231 C11.224,46.564 11.113,46.130 10.891,45.926 C10.669,45.722 10.224,45.620 9.558,45.620 L6.725,45.620 C6.058,45.620 5.614,45.722 5.392,45.926 C5.169,46.130 5.058,46.564 5.058,47.231 L5.058,70.950 C5.058,71.616 5.169,72.052 5.392,72.255 C5.614,72.459 6.058,72.561 6.725,72.561 L9.558,72.561 C10.224,72.561 10.669,72.459 10.891,72.255 C11.113,72.052 11.224,71.616 11.224,70.950 L11.224,62.451 L8.447,62.451 L8.447,58.563 L16.279,58.563 L16.279,71.561 C16.279,74.857 14.557,76.505 11.113,76.505 ZM10.724,34.788 L5.336,34.788 C1.892,34.788 0.170,33.159 0.170,29.900 L0.170,24.790 L5.225,24.790 L5.225,29.123 C5.225,29.789 5.336,30.225 5.558,30.428 C5.780,30.632 6.225,30.734 6.891,30.734 L9.224,30.734 C9.891,30.734 10.326,30.632 10.530,30.428 C10.733,30.225 10.835,29.789 10.835,29.123 L10.835,20.624 C10.835,19.957 10.733,19.522 10.530,19.319 C10.326,19.115 9.891,19.013 9.224,19.013 L5.114,19.013 C1.744,19.013 0.059,17.366 0.059,14.069 L0.059,4.904 C0.059,1.646 1.781,0.016 5.225,0.016 L10.669,0.016 C14.113,0.016 15.834,1.646 15.834,4.904 L15.834,10.014 L10.780,10.014 L10.780,5.682 C10.780,5.015 10.669,4.580 10.446,4.377 C10.224,4.173 9.780,4.071 9.113,4.071 L6.780,4.071 C6.114,4.071 5.669,4.173 5.447,4.377 C5.225,4.580 5.114,5.015 5.114,5.682 L5.114,13.403 C5.114,14.069 5.225,14.505 5.447,14.708 C5.669,14.912 6.114,15.014 6.780,15.014 L10.835,15.014 C14.242,15.014 15.946,16.644 15.946,19.902 L15.946,29.900 C15.946,33.159 14.205,34.788 10.724,34.788 ZM44.747,86.483 L0.309,86.483 L0.309,82.039 L44.747,82.039 L44.747,86.483 ZM44.830,72.394 L44.830,76.449 L29.721,76.449 L29.721,41.676 L44.441,41.676 L44.441,45.731 L34.776,45.731 L34.776,56.452 L42.775,56.452 L42.775,60.507 L34.776,60.507 L34.776,72.394 L44.830,72.394 Z" class="cls-1"/>
</svg>
