<svg xmlns="http://www.w3.org/2000/svg" xmlns:xlink="http://www.w3.org/1999/xlink" preserveAspectRatio="xMidYMid" width="142" height="147.62" viewBox="0 0 71 73.81">
  <defs>
    <style>
      .cls-1, .cls-2 {
        fill: #fff;
        fill-rule: evenodd;
      }

      .cls-2 {
        opacity: 0.5;
      }
    </style>
  </defs>
  <g>
    <path d="M39.906,26.449 C36.193,24.321 30.054,23.256 21.487,23.256 L-0.008,23.256 L-0.008,73.800 L21.565,73.800 C30.443,73.800 36.647,72.787 40.179,70.763 C43.709,68.738 45.474,64.871 45.474,59.158 L45.474,38.598 C45.474,32.629 43.618,28.578 39.906,26.449 ZM30.677,64.104 C28.911,64.805 25.693,65.156 21.020,65.156 L12.141,65.156 L12.141,31.900 L21.409,31.900 C25.407,31.900 28.392,32.367 30.366,33.302 C32.338,34.237 33.325,35.925 33.325,38.364 L33.325,59.158 C33.325,61.756 32.442,63.403 30.677,64.104 Z" class="cls-1"/>
    <path d="M59.013,23.999 C52.386,23.999 47.013,18.626 47.013,11.998 C47.013,5.371 52.386,-0.002 59.013,-0.002 C65.640,-0.002 71.013,5.371 71.013,11.998 C71.013,18.626 65.640,23.999 59.013,23.999 ZM59.013,4.999 C55.147,4.999 52.013,8.133 52.013,11.998 C52.013,15.864 55.147,18.998 59.013,18.998 C62.879,18.998 66.013,15.864 66.013,11.998 C66.013,8.133 62.879,4.999 59.013,4.999 Z" class="cls-2"/>
  </g>
</svg>
