<svg xmlns="http://www.w3.org/2000/svg" xmlns:xlink="http://www.w3.org/1999/xlink" preserveAspectRatio="xMidYMid" width="247.626" height="115.82" viewBox="0 0 123.813 57.91">
  <defs>
    <style>
      .cls-1, .cls-2 {
        fill: #fff;
        fill-rule: evenodd;
      }

      .cls-2 {
        stroke: #fff;
        stroke-linejoin: round;
        stroke-width: 5px;
        fill-opacity: 0;
      }
    </style>
  </defs>
  <g>
    <path d="M115.378,55.397 C110.497,55.397 107.004,52.083 107.004,47.135 C107.004,42.052 110.497,38.739 115.378,38.739 C120.326,38.649 123.819,41.963 123.819,47.045 C123.819,51.993 120.326,55.307 115.378,55.397 ZM115.401,41.291 C112.132,41.291 109.960,43.798 109.960,46.956 C109.960,50.336 112.132,52.844 115.401,52.844 C118.692,52.844 120.864,50.336 120.864,46.956 C120.864,43.798 118.692,41.291 115.401,41.291 ZM101.749,54.994 L98.927,54.994 L98.927,41.694 L94.069,41.694 L94.069,39.142 L106.607,39.142 L106.607,41.694 L101.749,41.694 L101.749,54.994 ZM86.767,52.844 C88.043,52.844 89.274,52.262 90.327,50.919 L92.655,52.576 C91.222,54.546 89.073,55.397 86.744,55.397 C81.863,55.397 78.370,52.083 78.370,47.135 C78.370,42.052 81.863,38.739 86.744,38.739 C88.894,38.739 90.730,39.432 92.297,41.246 L90.103,42.858 C88.938,41.627 87.864,41.291 86.767,41.291 C83.498,41.291 81.326,43.798 81.326,46.956 C81.326,50.336 83.498,52.844 86.767,52.844 ZM77.155,52.441 L78.088,54.994 L64.385,54.994 L64.385,39.142 L77.685,39.142 L76.752,41.694 L67.207,41.694 L67.207,45.590 L74.483,45.590 L74.483,48.142 L67.207,48.142 L67.207,52.441 L77.155,52.441 ZM49.673,42.836 L49.628,42.836 L49.628,54.994 L49.577,54.994 L46.807,54.994 L45.995,54.994 L38.159,42.836 L38.114,42.836 L38.114,54.994 L35.292,54.994 L35.292,39.142 L39.032,39.142 L46.711,50.919 L46.756,50.919 L46.756,39.142 L46.807,39.142 L49.577,39.142 L50.546,39.142 L58.226,50.919 L58.271,50.919 L58.271,39.142 L61.092,39.142 L61.092,54.994 L57.510,54.994 L49.673,42.836 ZM23.943,55.397 C19.062,55.397 15.569,52.083 15.569,47.135 C15.569,42.052 19.062,38.739 23.943,38.739 C28.891,38.649 32.384,41.963 32.384,47.045 C32.384,51.993 28.891,55.307 23.943,55.397 ZM23.965,41.291 C20.696,41.291 18.524,43.798 18.524,46.956 C18.524,50.336 20.696,52.844 23.965,52.844 C27.256,52.844 29.428,50.336 29.428,46.956 C29.428,43.798 27.256,41.291 23.965,41.291 ZM8.405,52.844 C9.682,52.844 10.913,52.262 11.965,50.919 L14.294,52.576 C12.861,54.546 10.711,55.397 8.383,55.397 C3.502,55.397 0.009,52.083 0.009,47.135 C0.009,42.052 3.502,38.739 8.383,38.739 C10.532,38.739 12.368,39.432 13.936,41.246 L11.741,42.858 C10.577,41.627 9.502,41.291 8.405,41.291 C5.136,41.291 2.965,43.798 2.965,46.956 C2.965,50.336 5.136,52.844 8.405,52.844 Z" class="cls-1"/>
    <path d="M53.353,2.516 L74.953,2.516 L74.953,24.116 L53.353,24.116 L53.353,2.516 Z" class="cls-2"/>
  </g>
</svg>
