<svg xmlns="http://www.w3.org/2000/svg" xmlns:xlink="http://www.w3.org/1999/xlink" preserveAspectRatio="xMidYMid" width="132.06" height="84.7" viewBox="0 0 66.03 42.35">
  <defs>
    <style>
      .cls-1 {
        fill: #fff;
        fill-rule: evenodd;
      }
    </style>
  </defs>
  <path d="M58.680,41.305 L58.680,0.016 L66.028,0.016 L66.028,41.305 L58.680,41.305 ZM33.194,42.354 C23.747,42.354 16.574,36.115 16.574,26.142 L16.574,0.016 L23.922,0.016 L23.922,25.909 C23.922,29.992 26.138,35.356 33.194,35.356 C40.251,35.356 42.467,29.992 42.467,25.909 L42.467,0.016 L49.815,0.016 L49.815,26.142 C49.815,36.115 42.642,42.354 33.194,42.354 ZM4.446,42.349 C1.880,42.349 0.014,40.367 0.014,38.151 C0.014,35.935 1.880,33.952 4.446,33.952 C7.012,33.952 8.995,35.760 8.995,38.151 C8.995,40.542 7.012,42.349 4.446,42.349 Z" class="cls-1"/>
</svg>
