<svg xmlns="http://www.w3.org/2000/svg" xmlns:xlink="http://www.w3.org/1999/xlink" preserveAspectRatio="xMidYMid" width="172" height="172" viewBox="0 0 86 86">
  <defs>
    <style>
      .cls-1 {
        fill: #202020;
        stroke: #fff;
        stroke-linejoin: round;
        stroke-width: 6px;
        fill-opacity: 0;
      }

      .cls-2 {
        fill: #fff;
        fill-rule: evenodd;
      }
    </style>
  </defs>
  <g>
    <rect x="3" y="3" width="80" height="80" class="cls-1"/>
    <path d="M48.394,46.656 C47.154,46.656 46.139,46.276 45.349,45.517 C44.558,44.758 44.054,44.378 43.837,44.378 C43.155,44.378 42.070,45.447 40.583,47.586 C39.095,49.725 37.939,51.817 37.118,53.863 C36.297,55.909 35.390,59.103 34.398,63.442 L31.971,74.000 L23.161,74.000 L30.306,41.541 L23.145,41.541 L23.750,39.169 L29.562,39.169 C33.530,39.169 36.831,38.968 39.466,38.565 L36.769,50.097 L36.956,50.283 C41.202,42.099 45.015,38.007 48.394,38.007 C49.665,38.007 50.743,38.426 51.626,39.263 C52.510,40.100 52.951,41.138 52.951,42.379 C52.951,43.619 52.525,44.641 51.673,45.447 C50.819,46.253 49.727,46.656 48.394,46.656 ZM27.888,23.918 C26.772,23.918 25.796,23.508 24.959,22.686 C24.122,21.864 23.703,20.911 23.703,19.826 C23.703,18.741 24.152,17.749 25.052,16.850 C25.950,15.951 26.400,15.455 26.400,15.362 C26.400,14.711 25.470,14.386 23.610,14.386 C19.425,14.386 16.441,16.649 14.659,21.175 C12.876,25.701 11.582,31.699 10.776,39.169 L17.519,39.169 L17.054,41.541 L10.497,41.541 L7.103,61.722 C6.300,66.453 5.488,70.538 4.669,74.000 L-0.000,74.000 L-0.000,49.345 L0.965,43.912 C0.996,43.789 1.073,43.378 1.198,42.680 C1.321,41.983 1.399,41.604 1.430,41.541 L-0.000,41.541 L-0.000,39.169 L1.988,39.169 C3.848,30.087 6.738,23.322 10.660,18.873 C14.582,14.425 18.681,12.200 22.959,12.200 C25.439,12.200 27.563,12.898 29.330,14.293 C31.097,15.688 31.980,17.377 31.980,19.361 C31.980,20.601 31.585,21.670 30.794,22.570 C30.004,23.469 29.035,23.918 27.888,23.918 Z" class="cls-2"/>
  </g>
</svg>
