<svg xmlns="http://www.w3.org/2000/svg" xmlns:xlink="http://www.w3.org/1999/xlink" preserveAspectRatio="xMidYMid" viewBox="0 0 25.125 46.25">
  <defs>
    <style>
      .cls-1 {
        fill: #30282a;
        fill-rule: evenodd;
      }
    </style>
  </defs>
  <path d="M22.424,18.599 L21.681,14.292 L17.759,14.292 L17.076,18.599 L14.402,18.599 L17.700,0.002 L21.592,0.002 L25.127,18.599 L22.424,18.599 ZM19.631,2.320 L18.086,12.123 L21.324,12.123 L19.631,2.320 ZM5.935,40.911 L2.757,40.911 C0.915,40.911 -0.006,40.030 -0.006,38.267 L-0.006,24.898 C-0.006,23.156 0.915,22.284 2.757,22.284 L5.935,22.284 C7.777,22.284 8.698,23.156 8.698,24.898 L8.698,27.720 L5.995,27.720 L5.995,25.254 C5.995,24.898 5.935,24.665 5.817,24.556 C5.698,24.448 5.460,24.393 5.104,24.393 L3.589,24.393 C3.232,24.393 2.994,24.448 2.875,24.556 C2.757,24.665 2.697,24.898 2.697,25.254 L2.697,37.940 C2.697,38.296 2.757,38.529 2.875,38.638 C2.994,38.747 3.232,38.801 3.589,38.801 L5.104,38.801 C5.460,38.801 5.698,38.747 5.817,38.638 C5.935,38.529 5.995,38.296 5.995,37.940 L5.995,33.395 L4.509,33.395 L4.509,31.315 L8.698,31.315 L8.698,38.267 C8.698,40.030 7.777,40.911 5.935,40.911 ZM5.727,18.599 L2.846,18.599 C1.004,18.599 0.083,17.728 0.083,15.985 L0.083,13.252 L2.786,13.252 L2.786,15.570 C2.786,15.926 2.846,16.159 2.965,16.268 C3.083,16.377 3.321,16.431 3.678,16.431 L4.925,16.431 C5.282,16.431 5.514,16.377 5.624,16.268 C5.732,16.159 5.787,15.926 5.787,15.570 L5.787,11.024 C5.787,10.668 5.732,10.435 5.624,10.326 C5.514,10.218 5.282,10.163 4.925,10.163 L2.727,10.163 C0.924,10.163 0.023,9.282 0.023,7.519 L0.023,2.616 C0.023,0.874 0.944,0.002 2.786,0.002 L5.698,0.002 C7.540,0.002 8.461,0.874 8.461,2.616 L8.461,5.350 L5.757,5.350 L5.757,3.033 C5.757,2.676 5.698,2.444 5.579,2.334 C5.460,2.225 5.222,2.171 4.866,2.171 L3.618,2.171 C3.262,2.171 3.024,2.225 2.905,2.334 C2.786,2.444 2.727,2.676 2.727,3.033 L2.727,7.162 C2.727,7.519 2.786,7.752 2.905,7.860 C3.024,7.970 3.262,8.023 3.618,8.023 L5.787,8.023 C7.609,8.023 8.520,8.896 8.520,10.638 L8.520,15.985 C8.520,17.728 7.589,18.599 5.727,18.599 ZM23.924,46.248 L0.157,46.248 L0.157,43.871 L23.924,43.871 L23.924,46.248 ZM23.968,38.712 L23.968,40.881 L15.888,40.881 L15.888,22.284 L23.760,22.284 L23.760,24.452 L18.591,24.452 L18.591,30.186 L22.869,30.186 L22.869,32.355 L18.591,32.355 L18.591,38.712 L23.968,38.712 Z" class="cls-1"/>
</svg>
