<svg xmlns="http://www.w3.org/2000/svg" xmlns:xlink="http://www.w3.org/1999/xlink" preserveAspectRatio="xMidYMid" width="21.43" height="17.438" viewBox="0 0 21.43 17.438">
  <defs>
    <style>
      .cls-1 {
        fill: #929292;
        opacity: 0.85;
        fill-rule: evenodd;
      }
    </style>
  </defs>
  <path d="M21.422,2.064 C20.634,2.414 19.786,2.651 18.896,2.757 C19.804,2.213 20.501,1.351 20.830,0.323 C19.980,0.827 19.038,1.193 18.037,1.391 C17.234,0.536 16.091,0.002 14.826,0.002 C12.396,0.002 10.427,1.971 10.427,4.400 C10.427,4.745 10.466,5.081 10.541,5.403 C6.885,5.219 3.644,3.468 1.474,0.807 C1.095,1.457 0.879,2.212 0.879,3.019 C0.879,4.544 1.655,5.891 2.835,6.680 C2.114,6.657 1.436,6.459 0.843,6.130 C0.843,6.148 0.843,6.166 0.843,6.185 C0.843,8.316 2.359,10.094 4.371,10.498 C4.002,10.599 3.613,10.653 3.212,10.653 C2.929,10.653 2.653,10.625 2.385,10.574 C2.944,12.321 4.569,13.593 6.494,13.628 C4.988,14.808 3.092,15.512 1.031,15.512 C0.676,15.512 0.325,15.490 -0.019,15.450 C1.928,16.698 4.240,17.426 6.724,17.426 C14.815,17.426 19.240,10.723 19.240,4.911 C19.240,4.720 19.236,4.531 19.228,4.341 C20.087,3.721 20.833,2.947 21.422,2.064 Z" class="cls-1"/>
</svg>
